<svg xmlns="http://www.w3.org/2000/svg" width="63" height="63" viewBox="0 0 63.18 63.18"><path d="M1.5,30.91A1.5,1.5,0,0,1,0,29.41V14.14A14.15,14.15,0,0,1,14.14,0H29.41a1.5,1.5,0,0,1,0,3H14.14A11.16,11.16,0,0,0,3,14.14V29.41A1.5,1.5,0,0,1,1.5,30.91Z" fill="#c39f6b"/><path d="M49,63.18H33.77a1.5,1.5,0,0,1,0-3H49A11.16,11.16,0,0,0,60.18,49V33.77a1.5,1.5,0,0,1,3,0V49A14.16,14.16,0,0,1,49,63.18Z" fill="#c39f6b"/><path d="M61.68,30.91a1.5,1.5,0,0,1-1.5-1.5V14.14A11.16,11.16,0,0,0,49,3H33.77a1.5,1.5,0,0,1,0-3H49A14.16,14.16,0,0,1,63.18,14.14V29.41A1.5,1.5,0,0,1,61.68,30.91Z" fill="#c39f6b"/><path d="M29.41,63.18H14.14A14.16,14.16,0,0,1,0,49V33.77a1.5,1.5,0,0,1,3,0V49A11.16,11.16,0,0,0,14.14,60.18H29.41a1.5,1.5,0,1,1,0,3Z" fill="#c39f6b"/><path d="M47.55,36.37a1.5,1.5,0,0,1-1.5-1.5V15.53a1.5,1.5,0,0,1,3,0V34.87A1.5,1.5,0,0,1,47.55,36.37Z" fill="#c39f6b"/><path d="M39.53,50.29a1.5,1.5,0,0,1-1.5-1.5V15.53a1.5,1.5,0,0,1,3,0V48.79A1.5,1.5,0,0,1,39.53,50.29Z" fill="#c39f6b"/><path d="M31.52,41.51A1.5,1.5,0,0,1,30,40V15.53a1.5,1.5,0,0,1,3,0V40A1.5,1.5,0,0,1,31.52,41.51Z" fill="#c39f6b"/><path d="M23.5,48a1.5,1.5,0,0,1-1.5-1.5v-31a1.5,1.5,0,0,1,3,0v31A1.5,1.5,0,0,1,23.5,48Z" fill="#c39f6b"/><path d="M15.48,34.34a1.5,1.5,0,0,1-1.5-1.5V15.53a1.5,1.5,0,1,1,3,0V32.84A1.5,1.5,0,0,1,15.48,34.34Z" fill="#c39f6b"/></svg>