<svg xmlns="http://www.w3.org/2000/svg" width="63" height="63" viewBox="0 0 63.18 63.18"><path d="M1.5,30.91A1.5,1.5,0,0,1,0,29.41V14.14A14.15,14.15,0,0,1,14.14,0H29.41a1.5,1.5,0,0,1,0,3H14.14A11.16,11.16,0,0,0,3,14.14V29.41A1.5,1.5,0,0,1,1.5,30.91Z" fill="#c39f6b"/><path d="M49,63.18H33.77a1.5,1.5,0,0,1,0-3H49A11.16,11.16,0,0,0,60.18,49V33.77a1.5,1.5,0,0,1,3,0V49A14.16,14.16,0,0,1,49,63.18Z" fill="#c39f6b"/><path d="M61.68,30.91a1.5,1.5,0,0,1-1.5-1.5V14.14A11.16,11.16,0,0,0,49,3H33.77a1.5,1.5,0,0,1,0-3H49A14.16,14.16,0,0,1,63.18,14.14V29.41A1.5,1.5,0,0,1,61.68,30.91Z" fill="#c39f6b"/><path d="M29.41,63.18H14.14A14.16,14.16,0,0,1,0,49V33.77a1.5,1.5,0,0,1,3,0V49A11.16,11.16,0,0,0,14.14,60.18H29.41a1.5,1.5,0,1,1,0,3Z" fill="#c39f6b"/><path d="M54.83,30.85c-.42-.39-10.54-9.54-23.24-9.54S8.77,30.46,8.35,30.85a1,1,0,0,0-.33.74,1,1,0,0,0,.33.73c.42.39,10.53,9.55,23.24,9.55s22.82-9.16,23.24-9.55a1,1,0,0,0,.32-.73A1,1,0,0,0,54.83,30.85ZM31.59,38.37a6.78,6.78,0,1,1,6.78-6.78A6.78,6.78,0,0,1,31.59,38.37Z" fill="#c39f6b"/></svg>