<svg xmlns="http://www.w3.org/2000/svg" width="63" height="63" viewBox="0 0 63.18 63.18"><path d="M1.5,30.91A1.5,1.5,0,0,1,0,29.41V14.14A14.15,14.15,0,0,1,14.14,0H29.41a1.5,1.5,0,0,1,0,3H14.14A11.16,11.16,0,0,0,3,14.14V29.41A1.5,1.5,0,0,1,1.5,30.91Z" fill="#c39f6b"/><path d="M49,63.18H33.77a1.5,1.5,0,0,1,0-3H49A11.16,11.16,0,0,0,60.18,49V33.77a1.5,1.5,0,0,1,3,0V49A14.16,14.16,0,0,1,49,63.18Z" fill="#c39f6b"/><path d="M61.68,30.91a1.5,1.5,0,0,1-1.5-1.5V14.14A11.16,11.16,0,0,0,49,3H33.77a1.5,1.5,0,0,1,0-3H49A14.16,14.16,0,0,1,63.18,14.14V29.41A1.5,1.5,0,0,1,61.68,30.91Z" fill="#c39f6b"/><path d="M29.41,63.18H14.14A14.16,14.16,0,0,1,0,49V33.77a1.5,1.5,0,0,1,3,0V49A11.16,11.16,0,0,0,14.14,60.18H29.41a1.5,1.5,0,1,1,0,3Z" fill="#c39f6b"/><path d="M26.53,34.1H18.19a1.5,1.5,0,0,1-1.5-1.5V24.46H12.3a1.5,1.5,0,0,1-1.38-.93,1.48,1.48,0,0,1,.32-1.63L21.3,11.84a1.49,1.49,0,0,1,2.12,0L33.48,21.9a1.5,1.5,0,0,1-1.06,2.56H28V32.6A1.5,1.5,0,0,1,26.53,34.1Zm-6.84-3H25V23a1.5,1.5,0,0,1,1.5-1.5H28.8L22.36,15l-6.44,6.44h2.27a1.5,1.5,0,0,1,1.5,1.5Z" fill="#c39f6b"/><path d="M40.81,51.78a1.53,1.53,0,0,1-1.06-.44L29.69,41.28a1.5,1.5,0,0,1,1.06-2.56h4.4V30.58a1.5,1.5,0,0,1,1.5-1.5H45a1.5,1.5,0,0,1,1.5,1.5v8.14h4.4a1.49,1.49,0,0,1,1.38.92,1.52,1.52,0,0,1-.32,1.64L41.88,51.34A1.53,1.53,0,0,1,40.81,51.78ZM34.38,41.72l6.43,6.44,6.44-6.44H45a1.5,1.5,0,0,1-1.5-1.5V32.08H38.15v8.14a1.5,1.5,0,0,1-1.5,1.5Z" fill="#c39f6b"/></svg>