<svg xmlns="http://www.w3.org/2000/svg" width="63" height="63" viewBox="0 0 63.18 63.18"><path d="M34.08,14.54H28.81a1.5,1.5,0,1,1,0-3h5.27a1.5,1.5,0,0,1,0,3Z" fill="#c39f6b"/><path d="M32.16,53.14H23.44a4.5,4.5,0,0,1-4.5-4.5v-34a4.51,4.51,0,0,1,4.5-4.5h16a4.5,4.5,0,0,1,4.5,4.5v19a1.5,1.5,0,0,1-3,0v-19a1.5,1.5,0,0,0-1.5-1.5h-16a1.51,1.51,0,0,0-1.5,1.5v34a1.5,1.5,0,0,0,1.5,1.5h8.72a1.5,1.5,0,0,1,0,3Z" fill="#c39f6b"/><path d="M42.44,55.14a9.5,9.5,0,1,1,9.5-9.5A9.52,9.52,0,0,1,42.44,55.14Zm0-16a6.5,6.5,0,1,0,6.5,6.5A6.51,6.51,0,0,0,42.44,39.14Z" fill="#c39f6b"/><path d="M41.44,49.14a1.48,1.48,0,0,1-1.06-.44l-2-2a1.5,1.5,0,1,1,2.12-2.12l.94.94,2.94-2.94a1.51,1.51,0,0,1,2.12,0,1.49,1.49,0,0,1,0,2.12l-4,4A1.45,1.45,0,0,1,41.44,49.14Z" fill="#c39f6b"/><path d="M1.5,30.91A1.5,1.5,0,0,1,0,29.41V14.14A14.15,14.15,0,0,1,14.14,0H29.41a1.5,1.5,0,0,1,0,3H14.14A11.16,11.16,0,0,0,3,14.14V29.41A1.5,1.5,0,0,1,1.5,30.91Z" fill="#c39f6b"/><path d="M49,63.18H33.77a1.5,1.5,0,0,1,0-3H49A11.16,11.16,0,0,0,60.18,49V33.77a1.5,1.5,0,0,1,3,0V49A14.16,14.16,0,0,1,49,63.18Z" fill="#c39f6b"/><path d="M61.68,30.91a1.5,1.5,0,0,1-1.5-1.5V14.14A11.16,11.16,0,0,0,49,3H33.77a1.5,1.5,0,0,1,0-3H49A14.16,14.16,0,0,1,63.18,14.14V29.41A1.5,1.5,0,0,1,61.68,30.91Z" fill="#c39f6b"/><path d="M29.41,63.18H14.14A14.16,14.16,0,0,1,0,49V33.77a1.5,1.5,0,0,1,3,0V49A11.16,11.16,0,0,0,14.14,60.18H29.41a1.5,1.5,0,1,1,0,3Z" fill="#c39f6b"/></svg>