<svg xmlns="http://www.w3.org/2000/svg" width="1267" height="319" viewBox="0 0 1266.74 318.94"><path d="M628,77.33h15.66a3.08,3.08,0,0,1,2.94,4L597.7,240.08a3.08,3.08,0,0,1-2.94,2.17h-11.5a3.08,3.08,0,0,1-3-2.18l-39-128.45h-.43L501.78,240.07a3.08,3.08,0,0,1-2.94,2.18h-11.5a3.08,3.08,0,0,1-2.95-2.17l-48.64-158a3.68,3.68,0,0,1,3.51-4.76h14.86a3.08,3.08,0,0,1,2.95,2.21l36.24,123h.43l36.88-123a3.09,3.09,0,0,1,3-2.2h14.95a3.09,3.09,0,0,1,3,2.2L588.35,203h.44L625,79.55A3.06,3.06,0,0,1,628,77.33Z" fill="#c39f6b"/><path d="M672.2,209.27a3.53,3.53,0,0,1,3.43,2.72c2.43,10.37,12,15.72,23,15.72,17.58,0,22.35-9.55,22.35-16.27,0-7.38-4.77-11.94-20-16.06L681.24,190c-16.71-4.55-23-15.62-23-29.07,0-18.66,14.1-34.29,40.36-34.29,26.61,0,37.17,15.5,38.66,31.19a3.63,3.63,0,0,1-3.62,4H722.31a3.6,3.6,0,0,1-3.54-2.89c-2.13-10.86-8.6-16.21-20.6-16.21-12.37,0-20.4,7.38-20.4,16.27,0,6.3,3.47,11.07,12.58,13.68l26.48,7.59c17.79,5.21,23.65,15,23.65,29.51,0,23-20.18,35.15-41,35.15-24.77,0-39.85-12.34-42.22-31.52a3.62,3.62,0,0,1,3.6-4.06Z" fill="#c39f6b"/><path d="M780.81,101.85h12a3.76,3.76,0,0,1,3.76,3.77v19.81a3.77,3.77,0,0,0,3.76,3.77h15.53a3.76,3.76,0,0,1,3.76,3.76v9.62a3.76,3.76,0,0,1-3.76,3.76H800.34a3.76,3.76,0,0,0-3.76,3.76v65.68c0,6.07,2,8.24,9.55,8.24h10.18a3.77,3.77,0,0,1,3.76,3.77v10.64a3.75,3.75,0,0,1-3.68,3.76c-2.45.06-10.4.06-13.3.06-20,0-26-6.94-26-24.3V150.1a3.76,3.76,0,0,0-3.76-3.76H757.75a3.77,3.77,0,0,1-3.76-3.76V133a3.76,3.76,0,0,1,3.76-3.76h15.54a3.76,3.76,0,0,0,3.76-3.77V105.62A3.77,3.77,0,0,1,780.81,101.85Z" fill="#c39f6b"/><path d="M917.46,229H917c-5.86,10.2-18.44,15.84-31,15.84-21.92,0-43.61-11.93-43.61-42.53V133a3.76,3.76,0,0,1,3.76-3.76h12A3.76,3.76,0,0,1,861.9,133v62c0,16.92,7,31.68,26.26,31.68,18.23,0,29.3-12.37,29.3-33.85V133a3.76,3.76,0,0,1,3.76-3.76h12A3.76,3.76,0,0,1,937,133V238.49a3.76,3.76,0,0,1-3.77,3.76h-12a3.76,3.76,0,0,1-3.76-3.76Z" fill="#c39f6b"/><path d="M1060.87,77.33h12a3.77,3.77,0,0,1,3.76,3.77V238.49a3.76,3.76,0,0,1-3.76,3.76h-12a3.76,3.76,0,0,1-3.76-3.76v-13.6h-.44c-8.24,11.72-22.56,20-42.09,20-31.47,0-59.68-24.73-59.68-60.32,0-32.55,26.91-57.94,58.81-57.94,16.71,0,33.63,6.95,43,20.4h.44V81.1A3.76,3.76,0,0,1,1060.87,77.33Zm-46.24,67.49c-26.47,0-41.45,21.05-41.45,39.93,0,26,20.18,41.88,40.8,41.88a40.71,40.71,0,0,0,40.58-40.8C1054.56,163.05,1035.9,144.82,1014.63,144.82Z" fill="#c39f6b"/><path d="M1114.08,79.75a13.67,13.67,0,1,1-12.77,12.78A13.63,13.63,0,0,1,1114.08,79.75Zm-5.15,49.45h12a3.74,3.74,0,0,1,3.75,3.74V238.51a3.74,3.74,0,0,1-3.75,3.74h-12a3.73,3.73,0,0,1-3.74-3.74V132.94A3.73,3.73,0,0,1,1108.93,129.2Z" fill="#c39f6b"/><path d="M1207.61,126.59c34.38,0,59.13,27.34,59.13,59.24,0,32.33-23.49,59-59.13,59s-59.13-26.69-59.13-59C1148.48,153.93,1173.22,126.59,1207.61,126.59Zm-40.91,59.24c0,21.7,18.91,40.8,40.91,40.8s40.9-19.1,40.9-40.8a40.91,40.91,0,1,0-81.81,0Z" fill="#c39f6b"/><path d="M406.14,108.66a3.53,3.53,0,0,1-4.86.32,63,63,0,0,0-40-14.72A65.27,65.27,0,0,0,296,159.79c0,38.41,31.68,65.53,65.31,65.53a61.58,61.58,0,0,0,41.45-15.23,3.54,3.54,0,0,1,5,.32l8.52,9.64a3.54,3.54,0,0,1-.38,5c-14.63,12.09-35,19.75-54.55,19.75-56,0-87.45-44.26-87.45-85.06s31.47-85.06,87.45-85.06c20.44,0,40.5,7.74,53.85,18.63a3.52,3.52,0,0,1,.33,5.1Z" fill="#c39f6b"/><path d="M193.86,78.06H149.59a29.73,29.73,0,0,1-29.69-29.7V7.75A7.74,7.74,0,0,1,133,2.12l66.21,62.55a7.75,7.75,0,0,1-5.32,13.39ZM135.4,25.73V48.36a14.21,14.21,0,0,0,14.19,14.2h24.78Z" fill="#c39f6b"/><path d="M132.59,70.38H52.3a7.75,7.75,0,0,1,0-15.5h80.29a7.75,7.75,0,1,1,0,15.5Z" fill="#c39f6b"/><path d="M149.15,105.33H52.3a7.75,7.75,0,0,1,0-15.5h96.85a7.75,7.75,0,0,1,0,15.5Z" fill="#c39f6b"/><path d="M149.15,140.28H52.3a7.75,7.75,0,1,1,0-15.5h96.85a7.75,7.75,0,0,1,0,15.5Z" fill="#c39f6b"/><path d="M112.26,318.94a7.65,7.65,0,0,1-2.36-.37,7.75,7.75,0,0,1-5.39-7.38V205.4a7.75,7.75,0,0,1,3.24-6.3,12.12,12.12,0,1,0-13.86.15,7.75,7.75,0,0,1,3.37,6.4V311.19a7.75,7.75,0,0,1-14.06,4.5L6.6,208.27A35.27,35.27,0,0,1,0,187.66v-149A38.72,38.72,0,0,1,38.68,0h89.13a7.75,7.75,0,0,1,5.32,2.12l66.21,62.55a7.78,7.78,0,0,1,2.43,5.64V187.66a35.27,35.27,0,0,1-6.6,20.61l-76.6,107.42A7.78,7.78,0,0,1,112.26,318.94ZM120,209v78l62.54-87.7a19.82,19.82,0,0,0,3.72-11.61v-114L124.72,15.5h-86A23.21,23.21,0,0,0,15.5,38.69v149a19.89,19.89,0,0,0,3.72,11.61L81.76,287V209.32A27.65,27.65,0,1,1,120,209Z" fill="#c39f6b"/></svg>